<svg class="" width="512px" viewBox="0 0 16.933333 16.933334" height="512px" id="svg31911" xmlns="../../external.html?link=http://www.w3.org/2000/svg"><g><g transform="translate(0 -280.067)" id="layer1"><path fill="#8A1F02" data-old_color="#000000" class="active-path" data-original="#000000" d="m1.3229164 281.38905c-.43516022 0-.79271552.35962-.79271552.79478v9.52552c0 .43516.3575553.79272.79271552.79272h14.2869836c.43516 0 .7953-.35756.7953-.79272v-9.52552c0-.43516-.36014-.79478-.7953-.79478zm0 .52917h14.2869836c.151154 0 .266134.11446.266134.26561v7.6724h-14.8187355v-7.6724c0-.15115.1144614-.26561.2656179-.26561zm3.4395834.54208c-1.7735339.13539-3.1760346 1.61907-3.1760346 3.42667 0 1.89649 1.5430871 3.43958 3.4395834 3.43958.8528182 0 1.6328364-.31404 2.2350069-.82992l-1.5037832-1.50534c-.2093939.13854-.4602851.22014-.7312237.22014-.733761 0-1.3223981-.5907-1.3223981-1.32446 0-.64348.452583-1.1749 1.0588493-1.29605zm.5291667.00052v2.1301c.6056603.12191 1.0588492.65328 1.0588492 1.29605 0 .27036-.081624.52054-.2196226.72967l1.5053336 1.50533c.5168845-.60185.8314745-1.38169.8314745-2.235 0-.22752-.02217-.44988-.06459-.66508l-.5880794.58911c-.2499571.27015-.6444509-.12709-.3725862-.37517.3789918-.37915.7557086-.75829 1.1342976-1.13688h2.0060788c.382492.0323.382492-.55939 0-.5271h-2.1290698c-.07423.006-.130599.0329-.173633.076l-.2940395.29404c-.5572893-.93911-1.5471722-1.59277-2.6944082-1.68103zm6.3370795.25218c-.365559.0169-.340455.54661.01241.52968h1.588011c.352864 0 .352864-.52968 0-.52968zm2.645318 0c-.366207.0185-.338585.54821.01394.52968h.263552c.352864 0 .352864-.52968 0-.52968zm-2.645318 1.05885c-.339653.0385-.31674.52017.01241.5271h2.910417c.382492.0323.382492-.55939 0-.5271zm.01241 1.05627c-.352864 0-.352864.52968 0 .52968h.266134c.352864 0 .352864-.52968 0-.52968zm1.322398 0c-.352864 0-.352864.52968 0 .52968h1.588019c.352864 0 .352864-.52968 0-.52968zm1.058852 1.58801c-.146121.00058-.264109.1195-.263551.26562v2.38125c.000529.14531.118237.26297.263551.26355h1.058334c.146118.00055.26503-.11743.265615-.26355v-2.38125c.000529-.14693-.11869-.26618-.265615-.26562zm-2.12907.7953c-.14909.0135-.252378.12747-.252185.26355v1.58802c.000529.14617.119962.26411.266134.26355h1.056264c.146172.00056.265102-.11738.265618-.26355v-1.58802c-.000529-.14617-.119446-.26411-.265618-.26355zm-2.1171818.52917c-.149085.0135-.252376.12746-.252183.26355v1.05885c.00053.14617.119965.26411.266134.26355h1.0583328c.14541-.0005.263036-.11814.263552-.26355v-1.05885c-.00053-.14541-.118142-.26303-.263552-.26355zm-1.8484668 3.17345c.00362-.00007.00722-.00007.010848 0h1.0562628c.353121 0 .353121.52968 0 .52968h-1.0562639c-.3531208.007-.363974-.52245-.010848-.52968zm-1.1399864 2.11718c-.059648.16052-.1498653.33942-.2904225.52969h3.9387775c-.140449-.19027-.230836-.36917-.290423-.52969zm-1.2324847 1.05885c-.4351602 0-.7927155.35756-.7927155.79272v.52968c-.0005292.14612.11743.26504.2635488.26562h6.8812354c.146119-.00058.264107-.1195.263549-.26562v-.52968c0-.43516-.358072-.79272-.793234-.79272z" id="path21613"></path></g></g> </svg>
