<svg class="" width="512px" viewBox="0 0 512 512" height="512px" id="Capa_1" xmlns="../../external.html?link=http://www.w3.org/2000/svg"><g><g><path fill="#8A1F02" data-old_color="#000000" class="active-path" data-original="#000000" d="m507.605 245.395-60-60c-4.292-4.292-10.708-5.581-16.348-3.252-5.61 2.314-9.257 7.793-9.257 13.857v15h-39.188c-13.564-38.145-43.667-68.247-81.812-81.812v-38.188h15c6.064 0 11.543-3.647 13.857-9.258 2.329-5.61 1.04-12.056-3.252-16.348l-60-61c-5.859-5.859-15.352-5.859-21.211 0l-60 61c-4.292 4.292-5.581 10.737-3.252 16.348 2.315 5.611 7.794 9.258 13.858 9.258h15v38.188c-38.145 13.564-68.247 43.667-81.812 81.812h-38.188v-15c0-6.064-3.647-11.543-9.258-13.857-5.61-2.358-12.056-1.04-16.348 3.252l-61 60c-5.859 5.859-5.859 15.352 0 21.211l61 60c4.321 4.321 10.752 5.625 16.348 3.252 5.611-2.315 9.258-7.794 9.258-13.858v-15h38.188c13.564 38.145 43.667 68.247 81.812 81.812v39.188h-15c-6.064 0-11.543 3.647-13.857 9.258-2.329 5.61-1.04 12.056 3.252 16.348l60 60c2.93 2.93 6.768 4.395 10.605 4.395s7.676-1.465 10.605-4.395l60-60c4.292-4.292 5.581-10.737 3.252-16.348-2.314-5.611-7.793-9.258-13.857-9.258h-15v-39.188c38.145-13.564 68.247-43.667 81.812-81.812h39.188v15c0 6.064 3.647 11.543 9.258 13.857 5.61 2.358 12.056 1.04 16.348-3.252l60-60c5.859-5.859 5.859-15.351-.001-21.21zm-226.467 64.59c-3.249 1.624-6.655 2.903-10.14 3.871v4.144c0 8.284-6.716 15-15 15s-15-6.716-15-15v-3.676c-6.244-1.572-12.067-4.214-17-7.914-6.627-4.97-7.971-14.372-3-21 4.971-6.626 14.373-7.971 21-3 6 4.5 17.54 4.834 25.723.742 3.289-1.645 5.064-3.625 5.064-4.652 0-1.795 0-2.072-1.996-3.137-3.914-2.089-10.834-3.373-17.527-4.614-8.935-1.658-18.174-3.372-26.18-7.645-11.691-6.24-17.871-16.477-17.871-29.604 0-13.142 7.881-24.62 21.622-31.49 3.257-1.629 6.671-2.918 10.165-3.887v-4.123c0-8.284 6.716-15 15-15s15 6.716 15 15v3.673c6.245 1.573 12.067 4.217 17 7.917 6.628 4.971 7.971 14.373 3 21s-14.371 7.971-21 3c-6.009-4.507-17.559-4.841-25.749-.748-3.308 1.654-5.038 3.595-5.038 4.657 0 1.796 0 2.072 1.996 3.138 3.914 2.089 10.835 3.373 17.527 4.614 8.935 1.658 18.174 3.372 26.181 7.645 11.69 6.24 17.87 16.477 17.87 29.604.001 13.131-7.89 24.606-21.647 31.485z"></path></g></g> </svg>
