<svg width="512px" viewBox="0 0 24 24" height="512px" id="bold" xmlns="../../external.html?link=http://www.w3.org/2000/svg"><g><path fill="#8A1F02" data-old_color="#000000" class="active-path" data-original="#000000" d="m21 1h-18c-1.654 0-3 1.346-3 3v16c0 1.654 1.346 3 3 3h18c1.654 0 3-1.346 3-3v-16c0-1.654-1.346-3-3-3zm0 20h-18c-.551 0-1-.448-1-1v-14h20v14c0 .552-.449 1-1 1z"></path><path fill="#8A1F02" data-old_color="#000000" class="active-path" data-original="#000000" d="m13.5 19c-.378 0-.725-.213-.895-.553l-3.229-6.459-1.044 1.566c-.186.279-.498.446-.832.446h-2.5c-.553 0-1-.448-1-1s.447-1 1-1h1.965l1.703-2.555c.198-.296.523-.47.895-.443.355.022.673.232.832.551l3.004 6.008 1.173-2.933c.152-.379.519-.628.928-.628h3.5c.553 0 1 .448 1 1s-.447 1-1 1h-2.823l-1.748 4.372c-.146.365-.494.611-.887.627-.015.001-.028.001-.042.001z"></path></g> </svg>
